<?xml version="1.0" encoding="UTF-8"?>
<!-- Generated by Pixelmator Pro 3.6.4 -->
<svg width="1024" height="1024" viewBox="0 0 1024 1024" xmlns="http://www.w3.org/2000/svg">
    <g id="-">
        <path id="path1" fill="#1890ff" fill-rule="evenodd" stroke="none" d="M 0 736 C -0 895.057983 128.941986 1024 288 1024 L 736 1024 C 895.057983 1024 1024 895.057983 1024 736 L 1024 288 C 1024 128.942017 895.057983 0 736 0 L 288 0 C 128.941986 0 0 128.942017 0 288 Z"/>
        <path id="path2" fill="#ffffff" fill-opacity="0.802834" stroke="none" d="M 264.056641 722 C 262.372192 722 260.688965 721.944214 259.007813 721.833984 C 257.327026 721.724121 255.652542 721.559998 253.982422 721.339844 C 252.312302 721.119995 250.650162 720.846191 248.998047 720.517578 C 247.345947 720.188965 245.707199 719.807007 244.080078 719.371094 C 242.452957 718.935181 240.841232 718.446045 239.246094 717.904297 C 237.650955 717.362915 236.075714 716.769653 234.519531 716.125 C 232.963364 715.480347 231.428574 714.786011 229.917969 714.041016 C 228.406998 713.296021 226.92363 712.502197 225.464844 711.660156 C 224.006058 710.817749 222.576492 709.927979 221.175781 708.992188 C 219.77507 708.05603 218.404755 707.076294 217.068359 706.050781 C 215.731979 705.025391 214.430618 703.956055 213.164063 702.845703 C 211.897873 701.734985 210.669724 700.583801 209.478516 699.392578 C 208.287308 698.201416 207.136124 696.973633 206.025391 695.707031 C 204.914673 694.440796 203.847702 693.13916 202.822266 691.802734 C 201.796814 690.466309 200.814667 689.097961 199.878906 687.697266 C 198.94313 686.296509 198.055298 684.866943 197.212891 683.408203 C 196.37085 681.949463 195.577042 680.464111 194.832031 678.953125 C 194.087021 677.442505 193.392715 675.909668 192.748047 674.353516 C 192.103378 672.796997 191.510147 671.22168 190.96875 669.626953 C 190.426987 668.03186 189.937866 666.420105 189.501953 664.792969 C 189.066055 663.165894 188.684052 661.525146 188.355469 659.873047 C 188.026886 658.220947 187.753006 656.560791 187.533203 654.890625 C 187.313034 653.220459 187.147003 651.544434 187.037109 649.863281 C 186.926849 648.182495 186.871094 646.500854 186.871094 644.816406 C 186.871094 643.131958 186.926849 641.448364 187.037109 639.767578 C 187.147003 638.086426 187.313034 636.4104 187.533203 634.740234 C 187.753006 633.070068 188.026886 631.409912 188.355469 629.757813 C 188.684052 628.105713 189.066055 626.466919 189.501953 624.839844 C 189.937866 623.212769 190.426987 621.601013 190.96875 620.005859 C 191.510147 618.411133 192.103378 616.835815 192.748047 615.279297 C 193.392715 613.723145 194.087021 612.188354 194.832031 610.677734 C 195.577042 609.166748 196.37085 607.68335 197.212891 606.224609 L 349.998047 341.591797 C 350.840454 340.132996 351.728302 338.70343 352.664063 337.302734 C 353.600189 335.902039 354.58197 334.53363 355.607422 333.197266 C 356.632874 331.860901 357.700195 330.559143 358.810547 329.292969 C 359.921265 328.026428 361.072479 326.798645 362.263672 325.607422 C 363.454895 324.416199 364.684631 323.265015 365.951172 322.154297 C 367.217377 321.043945 368.51712 319.97467 369.853516 318.949219 C 371.189911 317.923767 372.558289 316.943909 373.958984 316.007813 C 375.359711 315.072021 376.791229 314.182251 378.25 313.339844 C 379.708771 312.497803 381.192139 311.703979 382.703125 310.958984 C 384.213715 310.213989 385.748505 309.519714 387.304688 308.875 C 388.861237 308.230286 390.436096 307.637085 392.03125 307.095703 C 393.626007 306.554321 395.238129 306.065186 396.865234 305.628906 C 398.49234 305.192993 400.131073 304.810974 401.783203 304.482422 C 403.435303 304.15387 405.09549 303.879944 406.765625 303.660156 C 408.43576 303.440369 410.111847 303.276245 411.792969 303.166016 C 413.473755 303.055725 415.157349 303 416.841797 303 C 418.526245 303 420.207886 303.055725 421.888672 303.166016 C 423.569794 303.276245 425.24588 303.440369 426.916016 303.660156 C 428.586151 303.879944 430.246338 304.15387 431.898438 304.482422 C 433.550568 304.810974 435.191254 305.192993 436.818359 305.628906 C 438.445465 306.065186 440.05719 306.554321 441.652344 307.095703 C 443.247101 307.637085 444.822357 308.230286 446.378906 308.875 C 447.935089 309.519714 449.467926 310.213989 450.978516 310.958984 C 452.489471 311.703979 453.974823 312.497803 455.433594 313.339844 C 456.892365 314.182251 458.32193 315.072021 459.722656 316.007813 C 461.123383 316.943909 462.49173 317.923767 463.828125 318.949219 C 465.16452 319.97467 466.466248 321.043945 467.732422 322.154297 C 468.998993 323.265015 470.226776 324.416199 471.417969 325.607422 C 472.609192 326.798645 473.760406 328.026428 474.871094 329.292969 C 475.981445 330.559143 477.050751 331.860901 478.076172 333.197266 C 479.101654 334.53363 480.081451 335.902039 481.017578 337.302734 C 481.953339 338.70343 482.84314 340.132996 483.685547 341.591797 L 511.341797 389.494141 L 386.212891 606.224609 C 385.370819 607.68335 384.577057 609.166748 383.832031 610.677734 C 383.087036 612.188354 382.392731 613.723145 381.748047 615.279297 C 381.103363 616.835815 380.510162 618.411133 379.96875 620.005859 C 379.427002 621.601013 378.937866 623.212769 378.501953 624.839844 C 378.06604 626.466919 377.684052 628.105713 377.355469 629.757813 C 377.026886 631.409912 376.752991 633.070068 376.533203 634.740234 C 376.313049 636.4104 376.147003 638.086426 376.037109 639.767578 C 375.926849 641.448364 375.871094 643.131958 375.871094 644.816406 C 375.871094 646.500854 375.926849 648.182495 376.037109 649.863281 C 376.147003 651.544434 376.313049 653.220459 376.533203 654.890625 C 376.752991 656.560791 377.026886 658.220947 377.355469 659.873047 C 377.684052 661.525146 378.06604 663.165894 378.501953 664.792969 C 378.937866 666.420105 379.427002 668.03186 379.96875 669.626953 C 380.510162 671.22168 381.103363 672.796997 381.748047 674.353516 C 382.392731 675.909668 383.087036 677.442505 383.832031 678.953125 C 384.577057 680.464111 385.370819 681.949463 386.212891 683.408203 C 387.055298 684.866943 387.943146 686.296509 388.878906 687.697266 C 389.814667 689.097961 390.796814 690.466309 391.822266 691.802734 C 392.847717 693.13916 393.914673 694.440796 395.025391 695.707031 C 396.136108 696.973633 397.287323 698.201416 398.478516 699.392578 C 399.669708 700.583801 400.897858 701.734985 402.164063 702.845703 C 403.430634 703.956055 404.731964 705.025391 406.068359 706.050781 C 407.404755 707.076294 408.775055 708.05603 410.175781 708.992188 C 411.576508 709.927979 413.006073 710.817749 414.464844 711.660156 C 415.923615 712.502197 417.407013 713.296021 418.917969 714.041016 C 420.428589 714.786011 421.963348 715.480347 423.519531 716.125 C 425.075714 716.769653 426.65097 717.362915 428.246094 717.904297 C 429.841248 718.446045 431.452972 718.935181 433.080078 719.371094 C 434.707184 719.807007 436.345947 720.188965 437.998047 720.517578 C 439.650177 720.846191 441.310364 721.119995 442.980469 721.339844 C 444.650604 721.559998 446.327026 721.724121 448.007813 721.833984 C 449.688965 721.944214 451.372192 722 453.056641 722 L 264.056641 722 Z"/>
        <filter id="filter1" x="0" y="0" width="1024" height="1024" filterUnits="userSpaceOnUse" primitiveUnits="userSpaceOnUse" color-interpolation-filters="sRGB">
            <feGaussianBlur stdDeviation="20"/>
            <feOffset dx="-0" dy="-0" result="offsetblur"/>
            <feFlood flood-color="#000000" flood-opacity="0.3"/>
            <feComposite in2="offsetblur" operator="in"/>
            <feMerge>
                <feMergeNode/>
                <feMergeNode in="SourceGraphic"/>
            </feMerge>
        </filter>
        <path id="path3" fill="#ffffff" fill-rule="evenodd" stroke="none" filter="url(#filter1)" d="M 452.708984 722 C 451.024536 722 449.341278 721.944214 447.660156 721.833984 C 445.97937 721.724121 444.304901 721.559998 442.634766 721.339844 C 440.964661 721.119995 439.302521 720.846191 437.650391 720.517578 C 435.998291 720.188965 434.359528 719.807007 432.732422 719.371094 C 431.105316 718.935181 429.493591 718.446045 427.898438 717.904297 C 426.303314 717.362915 424.728058 716.769653 423.171875 716.125 C 421.615692 715.480347 420.082855 714.786011 418.572266 714.041016 C 417.061279 713.296021 415.575958 712.502197 414.117188 711.660156 C 412.658417 710.817749 411.228851 709.927979 409.828125 708.992188 C 408.427429 708.05603 407.059052 707.076294 405.722656 706.050781 C 404.386261 705.025391 403.08493 703.956055 401.818359 702.845703 C 400.552185 701.734985 399.322052 700.583801 398.130859 699.392578 C 396.939636 698.201416 395.788452 696.973633 394.677734 695.707031 C 393.567017 694.440796 392.500061 693.13916 391.474609 691.802734 C 390.449188 690.466309 389.468964 689.097961 388.533203 687.697266 C 387.597443 686.296509 386.707642 684.866943 385.865234 683.408203 C 385.023163 681.949463 384.22937 680.464111 383.484375 678.953125 C 382.73938 677.442505 382.045074 675.909668 381.400391 674.353516 C 380.755737 672.796997 380.162506 671.22168 379.621094 669.626953 C 379.079315 668.03186 378.590179 666.420105 378.154297 664.792969 C 377.718384 663.165894 377.336395 661.525146 377.007813 659.873047 C 376.67923 658.220947 376.405334 656.560791 376.185547 654.890625 C 375.965363 653.220459 375.799347 651.544434 375.689453 649.863281 C 375.579193 648.182495 375.525391 646.500854 375.525391 644.816406 C 375.525391 643.131958 375.579193 641.448364 375.689453 639.767578 C 375.799347 638.086426 375.965363 636.4104 376.185547 634.740234 C 376.405334 633.070068 376.67923 631.409912 377.007813 629.757813 C 377.336395 628.105713 377.718384 626.466919 378.154297 624.839844 C 378.590179 623.212769 379.079315 621.601013 379.621094 620.005859 C 380.162506 618.411133 380.755737 616.835815 381.400391 615.279297 C 382.045074 613.723145 382.73938 612.188354 383.484375 610.677734 C 384.22937 609.166748 385.023163 607.68335 385.865234 606.224609 L 538.650391 341.591797 C 539.492798 340.132996 540.380676 338.70343 541.316406 337.302734 C 542.252563 335.902039 543.234314 334.53363 544.259766 333.197266 C 545.285217 331.860901 546.352539 330.559143 547.462891 329.292969 C 548.573608 328.026428 549.724792 326.798645 550.916016 325.607422 C 552.107239 324.416199 553.336975 323.265015 554.603516 322.154297 C 555.86969 321.043945 557.171448 319.97467 558.507813 318.949219 C 559.844177 317.923767 561.212585 316.943909 562.613281 316.007813 C 564.013977 315.072021 565.443542 314.182251 566.902344 313.339844 C 568.361145 312.497803 569.844482 311.703979 571.355469 310.958984 C 572.866028 310.213989 574.400818 309.519714 575.957031 308.875 C 577.51355 308.230286 579.08844 307.637085 580.683594 307.095703 C 582.278381 306.554321 583.890442 306.065186 585.517578 305.628906 C 587.144714 305.192993 588.783447 304.810974 590.435547 304.482422 C 592.087646 304.15387 593.749817 303.879944 595.419922 303.660156 C 597.090027 303.440369 598.76416 303.276245 600.445313 303.166016 C 602.126099 303.055725 603.809692 303 605.494141 303 C 607.178589 303 608.860229 303.055725 610.541016 303.166016 C 612.222107 303.276245 613.898254 303.440369 615.568359 303.660156 C 617.238464 303.879944 618.900635 304.15387 620.552734 304.482422 C 622.204895 304.810974 623.843567 305.192993 625.470703 305.628906 C 627.097839 306.065186 628.709534 306.554321 630.304688 307.095703 C 631.899475 307.637085 633.47467 308.230286 635.03125 308.875 C 636.587402 309.519714 638.120239 310.213989 639.630859 310.958984 C 641.141846 311.703979 642.627136 312.497803 644.085938 313.339844 C 645.544739 314.182251 646.974304 315.072021 648.375 316.007813 C 649.775696 316.943909 651.144043 317.923767 652.480469 318.949219 C 653.816833 319.97467 655.118591 321.043945 656.384766 322.154297 C 657.651367 323.265015 658.881042 324.416199 660.072266 325.607422 C 661.263428 326.798645 662.412659 328.026428 663.523438 329.292969 C 664.633789 330.559143 665.703064 331.860901 666.728516 333.197266 C 667.753967 334.53363 668.733826 335.902039 669.669922 337.302734 C 670.605713 338.70343 671.495483 340.132996 672.337891 341.591797 L 825.123047 606.224609 C 825.96405 607.68335 826.757813 609.166748 827.503906 610.677734 C 828.25 612.188354 828.944641 613.723145 829.587891 615.279297 C 830.234741 616.835815 830.826904 618.410706 831.367188 620.005859 C 831.907532 621.600586 832.396606 623.212769 832.833984 624.839844 C 833.2677 626.466919 833.649719 628.105713 833.980469 629.757813 C 834.307617 631.409912 834.582214 633.070068 834.802734 634.740234 C 835.023254 636.4104 835.188599 638.086426 835.298828 639.767578 C 835.409119 641.448364 835.464844 643.131958 835.464844 644.816406 C 835.464844 646.500854 835.409119 648.182495 835.298828 649.863281 C 835.188599 651.544434 835.023254 653.220459 834.802734 654.890625 C 834.582214 656.560791 834.307617 658.220947 833.980469 659.873047 C 833.649719 661.525146 833.2677 663.165894 832.833984 664.792969 C 832.396606 666.420105 831.907532 668.03186 831.367188 669.626953 C 830.826904 671.22168 830.234741 672.796997 829.587891 674.353516 C 828.944641 675.909668 828.25 677.442505 827.503906 678.953125 C 826.757813 680.464111 825.96405 681.949463 825.123047 683.408203 C 824.28064 684.866943 823.390808 686.296509 822.455078 687.697266 C 821.519287 689.097961 820.539124 690.466309 819.513672 691.802734 C 818.48822 693.13916 817.419312 694.44043 816.308594 695.707031 C 815.197876 696.973267 814.046692 698.201416 812.855469 699.392578 C 811.664246 700.583801 810.436096 701.734985 809.169922 702.845703 C 807.903381 703.956055 806.60199 705.025391 805.265625 706.050781 C 803.92926 707.076294 802.560913 708.05603 801.160156 708.992188 C 799.75946 709.927979 798.329895 710.817749 796.871094 711.660156 C 795.412292 712.502197 793.926636 713.296021 792.416016 714.041016 C 790.90509 714.786011 789.37262 715.480347 787.816406 716.125 C 786.260193 716.769653 784.684998 717.362915 783.089844 717.904297 C 781.49469 718.446045 779.882996 718.935181 778.255859 719.371094 C 776.628723 719.807007 774.98999 720.188965 773.337891 720.517578 C 771.685791 720.846191 770.023682 721.119995 768.353516 721.339844 C 766.683411 721.559998 765.008911 721.724121 763.328125 721.833984 C 761.647034 721.944214 759.963806 722 758.279297 722 L 452.708984 722 Z M 606 644 C 633.702637 644 626.826233 605.173706 645 587 C 668 564 694 576.898438 694 556 C 694 507.398987 654.601013 468 606 468 C 557.398987 468 518 507.398987 518 556 C 518 604.601013 557.398987 644 606 644 Z"/>
    </g>
</svg>
